# xmcd
#
# Track frame offsets: 
#        150
#        10758
#        24873
#        36521
#        54204
#        71066
#        84770
#        115405
#        136652
#        153012
#        165415
#        188206
#        209180
#        224340
#        261262
#        286096
#
# Disc length: 4170 seconds
#
# Revision: 1
# Processed by: cddbd v1.5.2PL0 Copyright (c) Steve Scherf et al.
# Submitted via: ExactAudioCopy v0.99pb5
#
DISCID=d5104810
DTITLE=Kevin Coyne - Marjory Razorblade (2CD2)
DYEAR=2010
DGENRE=Blues
TTITLE0=Lovesick Fool
TTITLE1=Sea Of Love
TTITLE2=Breathe In Deep
TTITLE3=Jackie And Edna (Take One)
TTITLE4=Pretty Park
TTITLE5=I Want My Crown (Live on OGWT)
TTITLE6=Eastbourne Ladies (Radio 1 session)
TTITLE7=House On The Hill (Radio 1 session)
TTITLE8=Chicken Wing (Radio 1 session)
TTITLE9=Poor Swine (Radio 1 session)
TTITLE10=Need Somebody (Radio 1 session)
TTITLE11=Araby (Radio 1 session)
TTITLE12=Do Not Shout At Me Father (Radio 1 session)
TTITLE13=Marjory Razorblade Suite (Live)
TTITLE14=House On The Hill (Live)
TTITLE15=Boogie Chillun (Live)
EXTD=
EXTT0=
EXTT1=
EXTT2=
EXTT3=
EXTT4=
EXTT5=
EXTT6=
EXTT7=
EXTT8=
EXTT9=
EXTT10=
EXTT11=
EXTT12=
EXTT13=
EXTT14=
EXTT15=
PLAYORDER=
